<svg width="24" height="24" viewBox="0 0 24 24" fill="none" xmlns="http://www.w3.org/2000/svg">
<path fill-rule="evenodd" clip-rule="evenodd" d="M10.876 0.639068C10.3346 0.326529 9.6676 0.326528 9.12619 0.639067L0.876187 5.40157C0.605324 5.55793 0.38637 5.7808 0.235352 6.04251C0.0844854 6.30396 0.00109863 6.60472 0.00109863 6.91716V16.4419C0.00109863 17.0672 0.334684 17.6449 0.876186 17.9575L9.62614 23.0086C9.85819 23.1426 10.1441 23.1426 10.3761 23.0086C10.6082 22.8746 10.7511 22.627 10.7511 22.3591V12.1129L18.5011 7.63904V10.2501C18.5011 10.6643 18.8369 11.0001 19.2511 11.0001C19.6653 11.0001 20.0011 10.6643 20.0011 10.2501V6.91716C20.0011 6.60472 19.9177 6.30396 19.7668 6.04251C19.6158 5.7808 19.3969 5.55793 19.126 5.40157L10.876 0.639068ZM17.7512 6.33993L10.0011 10.8139L2.25098 6.33993L9.87611 1.93815C9.95346 1.8935 10.0487 1.8935 10.1261 1.93815L17.7512 6.33993ZM1.5011 16.4419V7.63904L9.2511 12.1129V21.0601L1.62611 16.6584C1.54875 16.6138 1.5011 16.5312 1.5011 16.4419Z" fill="#24292F"/>
<path d="M19.5117 14.7983L16.6171 17.5H23.25C23.6642 17.5 24 17.8358 24 18.25C24 18.6642 23.6642 19 23.25 19H16.6171L19.5117 21.7017C19.8146 21.9843 19.8309 22.4589 19.5483 22.7617C19.2657 23.0646 18.7911 23.0809 18.4883 22.7983L14.2026 18.7983C14.0506 18.6565 13.9643 18.4579 13.9643 18.25C13.9643 18.0421 14.0506 17.8436 14.2026 17.7017L18.4883 13.7017C18.7911 13.4191 19.2657 13.4355 19.5483 13.7383C19.8309 14.0411 19.8146 14.5157 19.5117 14.7983Z" fill="#24292F"/>
</svg>
