<svg width="50" height="50" viewBox="0 0 50 50" fill="none" xmlns="http://www.w3.org/2000/svg">
<path fill-rule="evenodd" clip-rule="evenodd" d="M22.6584 1.33139C21.5305 0.680268 20.1409 0.680267 19.0129 1.33139L1.82542 11.2533C1.26112 11.579 0.804968 12.0433 0.490347 12.5886C0.176042 13.1333 0.00231934 13.7598 0.00231934 14.4108V34.254C0.00231934 35.5566 0.697289 36.7603 1.82542 37.4115L20.0545 47.9346C20.5379 48.2137 21.1335 48.2137 21.6169 47.9346C22.1004 47.6555 22.3982 47.1396 22.3982 46.5814V25.2352L38.544 15.9147V21.3544C38.544 22.2174 39.2435 22.9169 40.1065 22.9169C40.9694 22.9169 41.669 22.2174 41.669 21.3544V14.4108C41.669 13.7598 41.4953 13.1332 41.181 12.5886C40.8663 12.0433 40.4102 11.579 39.8459 11.2533L22.6584 1.33139ZM36.9817 13.2082L20.8357 22.5289L4.68956 13.2082L20.5753 4.03781C20.7364 3.94479 20.9349 3.94479 21.096 4.03781L36.9817 13.2082ZM3.12732 34.254V15.9147L19.2732 25.2352V43.8753L3.38776 34.7051C3.2266 34.6121 3.12732 34.4401 3.12732 34.254Z" fill="white"/>
<path d="M40.6495 30.8298L34.6189 36.4583H48.4375C49.3005 36.4583 50 37.1579 50 38.0208C50 38.8838 49.3005 39.5833 48.4375 39.5833H34.6189L40.6495 45.2119C41.2803 45.8007 41.3144 46.7894 40.7256 47.4203C40.1368 48.0512 39.1481 48.0853 38.5172 47.4964L29.5887 39.1631C29.2721 38.8676 29.0923 38.4539 29.0923 38.0208C29.0923 37.5877 29.2721 37.1741 29.5887 36.8786L38.5172 28.5452C39.1481 27.9564 40.1368 27.9905 40.7256 28.6214C41.3144 29.2522 41.2803 30.241 40.6495 30.8298Z" fill="white"/>
</svg>
