<svg width="50" height="49" viewBox="0 0 50 49" fill="none" xmlns="http://www.w3.org/2000/svg">
<path fill-rule="evenodd" clip-rule="evenodd" d="M7.29186 16.1376C7.29186 10.0102 12.4218 5.043 18.75 5.043C25.0782 5.043 30.2082 10.0102 30.2082 16.1376C30.2082 19.949 28.2232 23.3116 25.1996 25.309C32.209 27.7952 37.258 34.2177 37.4914 41.8118C37.5171 42.647 36.8386 43.3442 35.9761 43.3691C35.1135 43.3939 34.3935 42.737 34.3678 41.9018C34.1175 33.7593 27.2206 27.2322 18.7498 27.2322C10.2791 27.2322 3.38218 33.7593 3.13189 41.9018C3.10622 42.737 2.38616 43.3939 1.5236 43.3691C0.661036 43.3442 -0.0173984 42.647 0.00827355 41.8118C0.241707 34.2176 5.29084 27.7951 12.3003 25.3089C9.27678 23.3115 7.29186 19.949 7.29186 16.1376ZM18.75 8.06879C14.1478 8.06879 10.4169 11.6813 10.4169 16.1376C10.4169 20.5939 14.1478 24.2064 18.75 24.2064C23.3523 24.2064 27.0832 20.5939 27.0832 16.1376C27.0832 11.6813 23.3523 8.06879 18.75 8.06879Z" fill="white"/>
<path d="M36.0208 16.1376C35.7132 16.1376 35.4115 16.1588 35.1172 16.1995C34.2629 16.3178 33.4714 15.7432 33.3492 14.9161C33.227 14.089 33.8205 13.3225 34.6747 13.2042C35.1152 13.1432 35.5647 13.1118 36.0208 13.1118C41.233 13.1118 45.4582 17.203 45.4582 22.2497C45.4582 25.2267 43.9877 27.8694 41.7158 29.5366C46.573 31.6448 49.9582 36.3664 49.9582 41.8568C49.9582 42.6924 49.2587 43.3697 48.3957 43.3697C47.5328 43.3697 46.8332 42.6924 46.8332 41.8568C46.8332 37.1247 43.5896 33.1222 39.1341 31.8277L38.0207 31.5041V28.1234L38.8754 27.7029C40.9306 26.6918 42.3332 24.628 42.3332 22.2497C42.3332 18.874 39.507 16.1376 36.0208 16.1376Z" fill="white"/>
</svg>
