<svg width="50" height="47" viewBox="0 0 50 47" fill="none" xmlns="http://www.w3.org/2000/svg">
<path fill-rule="evenodd" clip-rule="evenodd" d="M22.9782 5.0417C24.1444 4.11704 25.8556 4.11704 27.0218 5.0417L42.6468 17.4299C43.3466 17.9847 43.75 18.799 43.75 19.6565V37.9611C43.75 39.5738 42.3509 40.8812 40.625 40.8812H28.6458C27.7829 40.8812 27.0833 40.2275 27.0833 39.4211V27.2541H22.9167V39.4211C22.9167 40.2275 22.2171 40.8812 21.3542 40.8812H9.375C7.64911 40.8812 6.25 39.5738 6.25 37.9611V19.6565C6.25 18.799 6.65341 17.9847 7.35319 17.4299L22.9782 5.0417ZM25 7.26829L9.375 19.6565L9.375 37.9611H19.7917V25.7941C19.7917 24.9877 20.4912 24.334 21.3542 24.334H28.6458C29.5088 24.334 30.2083 24.9877 30.2083 25.7941V37.9611H40.625V19.6565L25 7.26829Z" fill="white"/>
</svg>
