<svg width="50" height="53" viewBox="0 0 50 53" fill="none" xmlns="http://www.w3.org/2000/svg">
<g filter="url(#filter0_d_98_714)">
<path fill-rule="evenodd" clip-rule="evenodd" d="M25 5.20831C18.6718 5.20831 13.5419 10.3384 13.5419 16.6666C13.5419 20.603 15.5268 24.0758 18.5503 26.1387C11.5408 28.7063 6.49171 35.3394 6.25827 43.1827C6.2326 44.0452 6.91104 44.7653 7.7736 44.791C8.63616 44.8166 9.35622 44.1382 9.38189 43.2756C9.63218 34.8661 16.5291 28.125 24.9998 28.125C33.4706 28.125 40.3675 34.8661 40.6178 43.2756C40.6435 44.1382 41.3635 44.8166 42.2261 44.791C43.0886 44.7653 43.7671 44.0452 43.7414 43.1827C43.508 35.3395 38.459 28.7065 31.4496 26.1388C34.4732 24.0759 36.4582 20.6031 36.4582 16.6666C36.4582 10.3384 31.3282 5.20831 25 5.20831ZM16.6669 16.6666C16.6669 12.0642 20.3978 8.33331 25 8.33331C29.6023 8.33331 33.3332 12.0642 33.3332 16.6666C33.3332 21.269 29.6023 25 25 25C20.3978 25 16.6669 21.269 16.6669 16.6666Z" fill="white"/>
</g>
<defs>
<filter id="filter0_d_98_714" x="-4" y="0" width="58" height="58" filterUnits="userSpaceOnUse" color-interpolation-filters="sRGB">
<feFlood flood-opacity="0" result="BackgroundImageFix"/>
<feColorMatrix in="SourceAlpha" type="matrix" values="0 0 0 0 0 0 0 0 0 0 0 0 0 0 0 0 0 0 127 0" result="hardAlpha"/>
<feOffset dy="4"/>
<feGaussianBlur stdDeviation="2"/>
<feComposite in2="hardAlpha" operator="out"/>
<feColorMatrix type="matrix" values="0 0 0 0 0 0 0 0 0 0 0 0 0 0 0 0 0 0 0.25 0"/>
<feBlend mode="normal" in2="BackgroundImageFix" result="effect1_dropShadow_98_714"/>
<feBlend mode="normal" in="SourceGraphic" in2="effect1_dropShadow_98_714" result="shape"/>
</filter>
</defs>
</svg>
