<svg width="53" height="56" viewBox="0 0 53 56" fill="none" xmlns="http://www.w3.org/2000/svg">
<path fill-rule="evenodd" clip-rule="evenodd" d="M43.3752 15.5242C40.4833 19.7524 36.1968 24.5319 32.456 28.5317C32.3887 28.6037 32.3214 28.6752 32.2544 28.7461L26.3166 22.4721C26.3874 22.3956 26.4589 22.3188 26.5309 22.2417C30.2632 18.251 34.7721 13.7104 38.7729 10.6634C40.7866 9.1298 42.5604 8.06203 43.9697 7.58864C45.4094 7.10504 45.9908 7.37555 46.2641 7.6648C46.5148 7.92938 46.7751 8.52073 46.3061 10.0431C45.8491 11.5265 44.8306 13.3963 43.3752 15.5242ZM24.0727 25.051L29.8257 31.1297C27.884 32.8891 26.1069 34.1474 24.5744 34.9917C24.1023 34.0909 23.5044 33.2439 22.7809 32.4793C22.0554 31.7128 21.2513 31.0797 20.3962 30.5802C21.1914 28.9703 22.3906 27.122 24.0727 25.051ZM17.2576 29.381C13.9013 28.7008 10.2954 29.7336 7.69681 32.4793C6.53657 33.7053 5.75148 35.5186 5.19976 37.3304C4.63444 39.1869 4.25195 41.2551 4.0056 43.1801C3.75867 45.1096 3.64241 46.9439 3.62444 48.3513C3.61551 49.051 3.63042 49.6755 3.67152 50.1677C3.69167 50.4092 3.72145 50.6611 3.76947 50.8913C3.79327 51.0053 3.82938 51.1527 3.88675 51.308C3.93169 51.4296 4.04906 51.7258 4.30722 51.9986C4.56516 52.2705 4.84625 52.3956 4.96134 52.443C5.10819 52.5036 5.24763 52.5417 5.35556 52.5668C5.57342 52.6175 5.81181 52.649 6.04035 52.6703C6.5063 52.7137 7.09731 52.7295 7.75956 52.7201C9.09172 52.7011 10.8277 52.5783 12.6538 52.3174C14.4756 52.0572 16.4329 51.6531 18.1898 51.0558C19.9045 50.4728 21.6206 49.6433 22.7809 48.4174C25.3814 45.6695 26.3584 41.8558 25.7117 38.3071C28.3813 36.9085 31.5019 34.5314 34.8122 30.9918C38.5521 26.9929 43.0029 22.0439 46.06 17.5743C47.5792 15.3532 48.8381 13.1317 49.4559 11.1264C50.0616 9.16021 50.1924 6.86395 48.6068 5.19031C47.0198 3.51231 44.8464 3.62155 42.9661 4.25313C41.0549 4.89512 38.9429 6.21953 36.836 7.82412C32.5955 11.0536 27.9232 15.7736 24.1748 19.7816C20.8629 23.3228 18.5862 26.5398 17.2576 29.381ZM20.4385 34.9542C23.3103 37.9885 23.3103 42.9082 20.4385 45.9425C19.8395 46.5754 18.7287 47.1958 17.1752 47.724C15.664 48.2377 13.912 48.6058 12.2099 48.849C10.5121 49.0915 8.90946 49.2034 7.71495 49.2204C7.42503 49.2245 7.16576 49.2229 6.93988 49.2169C6.93421 48.9784 6.93274 48.7047 6.93664 48.3986C6.95275 47.1365 7.05863 45.4431 7.28822 43.6491C7.51839 41.8506 7.86679 39.9993 8.35306 38.4024C8.85292 36.7609 9.4401 35.5871 10.0391 34.9542C12.9108 31.9199 17.5668 31.9199 20.4385 34.9542Z" fill="white"/>
</svg>
