<svg width="42" height="38" viewBox="0 0 42 38" fill="none" xmlns="http://www.w3.org/2000/svg">
<path fill-rule="evenodd" clip-rule="evenodd" d="M3.64583 3.125C3.35819 3.125 3.125 3.35818 3.125 3.64583V33.8542C3.125 34.1418 3.35819 34.375 3.64583 34.375H38.0208C38.3085 34.375 38.5417 34.1418 38.5417 33.8542V9.76562C38.5417 9.47798 38.3085 9.24479 38.0208 9.24479H20.3728C19.1664 9.24479 18.0381 8.64801 17.3591 7.6508L14.4328 3.35271C14.3358 3.21025 14.1746 3.125 14.0022 3.125H3.64583ZM0 3.64583C0 1.6323 1.63229 0 3.64583 0H14.0022C15.2086 0 16.3369 0.596779 17.0159 1.59399L19.9422 5.89208C20.0392 6.03454 20.2004 6.11979 20.3728 6.11979H38.0208C40.0344 6.11979 41.6667 7.75209 41.6667 9.76562V33.8542C41.6667 35.8677 40.0344 37.5 38.0208 37.5H3.64583C1.63229 37.5 0 35.8677 0 33.8542V3.64583Z" fill="white"/>
</svg>
