<svg width="24" height="24" viewBox="0 0 24 24" fill="none" xmlns="http://www.w3.org/2000/svg">
<path fill-rule="evenodd" clip-rule="evenodd" d="M9.12619 0.639067C9.6676 0.326528 10.3346 0.326529 10.876 0.639068L19.126 5.40157C19.3969 5.55793 19.6158 5.7808 19.7668 6.04251C19.9177 6.30396 20.0011 6.60472 20.0011 6.91716V10.2501C20.0011 10.6643 19.6653 11.0001 19.2511 11.0001C18.8369 11.0001 18.5011 10.6643 18.5011 10.2501V7.63904L10.7511 12.1129V22.3591C10.7511 22.627 10.6082 22.8746 10.3761 23.0086C10.1441 23.1426 9.85819 23.1426 9.62614 23.0086L0.876186 17.9575C0.334684 17.6449 0.00109863 17.0672 0.00109863 16.4419V6.91716C0.00109863 6.60472 0.0844854 6.30396 0.235352 6.04251C0.38637 5.7808 0.605324 5.55793 0.876187 5.40157L9.12619 0.639067ZM10.0011 10.8139L17.7512 6.33993L10.1261 1.93815C10.0487 1.8935 9.95346 1.8935 9.87611 1.93815L2.25098 6.33993L10.0011 10.8139ZM1.5011 7.63904V16.4419C1.5011 16.5312 1.54875 16.6138 1.62611 16.6584L9.2511 21.0601V12.1129L1.5011 7.63904Z" fill="#24292F"/>
<path d="M18.4526 14.7983L21.3472 17.5H14.7143C14.3001 17.5 13.9643 17.8358 13.9643 18.25C13.9643 18.6642 14.3001 19 14.7143 19H21.3472L18.4526 21.7017C18.1497 21.9843 18.1334 22.4589 18.416 22.7617C18.6986 23.0646 19.1732 23.0809 19.476 22.7983L23.7617 18.7983C23.9137 18.6565 24 18.4579 24 18.25C24 18.0421 23.9137 17.8436 23.7617 17.7017L19.476 13.7017C19.1732 13.4191 18.6986 13.4355 18.416 13.7383C18.1334 14.0411 18.1497 14.5157 18.4526 14.7983Z" fill="#24292F"/>
</svg>
