<svg width="50" height="50" viewBox="0 0 50 50" fill="none" xmlns="http://www.w3.org/2000/svg">
<path d="M0 4.16667C0 1.86548 2.06185 0 4.60526 0H19.0789C20.169 0 21.0526 0.799491 21.0526 1.78571C21.0526 2.77194 20.169 3.57143 19.0789 3.57143H4.60526C4.24192 3.57143 3.94737 3.83793 3.94737 4.16667V45.8333C3.94737 46.1621 4.24192 46.4286 4.60526 46.4286H19.0789C20.169 46.4286 21.0526 47.2281 21.0526 48.2143C21.0526 49.2005 20.169 50 19.0789 50H4.60526C2.06185 50 0 48.1345 0 45.8333V4.16667Z" fill="white"/>
<path d="M26.2991 26.7857L34.9854 35.0814C35.7351 35.7974 35.7013 36.9276 34.91 37.6059C34.1187 38.2841 32.8695 38.2536 32.1198 37.5376L20.2777 26.2281C19.5565 25.5394 19.5565 24.4606 20.2777 23.7719L32.1198 12.4624C32.8695 11.7464 34.1187 11.7159 34.91 12.3941C35.7013 13.0724 35.7351 14.2026 34.9854 14.9186L26.2991 23.2143H48.0263C49.1164 23.2143 50 24.0138 50 25C50 25.9862 49.1164 26.7857 48.0263 26.7857H26.2991Z" fill="white"/>
</svg>
