<svg width="50" height="50" viewBox="0 0 50 50" fill="none" xmlns="http://www.w3.org/2000/svg">
<path fill-rule="evenodd" clip-rule="evenodd" d="M19.0129 1.33139C20.1409 0.680267 21.5305 0.680268 22.6584 1.33139L39.8459 11.2533C40.4102 11.579 40.8663 12.0433 41.181 12.5886C41.4953 13.1332 41.669 13.7598 41.669 14.4108V21.3544C41.669 22.2174 40.9694 22.9169 40.1065 22.9169C39.2435 22.9169 38.544 22.2174 38.544 21.3544V15.9147L22.3982 25.2352V46.5814C22.3982 47.1396 22.1004 47.6555 21.6169 47.9346C21.1335 48.2137 20.5379 48.2137 20.0545 47.9346L1.82542 37.4115C0.697289 36.7603 0.00231934 35.5566 0.00231934 34.254V14.4108C0.00231934 13.7598 0.176042 13.1333 0.490347 12.5886C0.804968 12.0433 1.26112 11.579 1.82542 11.2533L19.0129 1.33139ZM20.8357 22.5289L36.9817 13.2082L21.096 4.03781C20.9349 3.94479 20.7364 3.94479 20.5753 4.03781L4.68956 13.2082L20.8357 22.5289ZM3.12732 15.9147V34.254C3.12732 34.4401 3.2266 34.6121 3.38776 34.7051L19.2732 43.8753V25.2352L3.12732 15.9147Z" fill="white"/>
<path d="M38.4429 30.8298L44.4734 36.4583H30.6548C29.7919 36.4583 29.0923 37.1579 29.0923 38.0208C29.0923 38.8838 29.7919 39.5833 30.6548 39.5833H44.4735L38.4429 45.2119C37.812 45.8007 37.7779 46.7894 38.3667 47.4203C38.9555 48.0512 39.9442 48.0853 40.5751 47.4964L49.5037 39.1631C49.8203 38.8676 50 38.4539 50 38.0208C50 37.5877 49.8203 37.1741 49.5037 36.8786L40.5751 28.5452C39.9442 27.9564 38.9555 27.9905 38.3667 28.6214C37.7779 29.2522 37.812 30.241 38.4429 30.8298Z" fill="white"/>
</svg>
