<svg width="50" height="45" viewBox="0 0 50 45" fill="none" xmlns="http://www.w3.org/2000/svg">
<path fill-rule="evenodd" clip-rule="evenodd" d="M27.3999 1.2577C28.8612 0.503088 30.6656 0.503088 32.1269 1.2577L32.1425 1.26577L46.6362 9.15383C47.3671 9.53319 47.9565 10.0713 48.3612 10.702C48.7603 11.3238 48.9804 12.0365 48.9804 12.7765V26.6396C48.9804 28.1354 48.0818 29.5181 46.6216 30.2699L46.6172 30.2721L21.6916 43.2536L21.6834 43.2578C20.9485 43.6352 20.1274 43.8241 19.3068 43.8246C18.4843 43.825 17.661 43.6361 16.9244 43.2578L16.8703 43.2301L3.32207 34.9263C1.90442 34.1703 1.03857 32.8088 1.03857 31.3415V17.4098C1.03857 16.687 1.24872 15.99 1.63087 15.3789L1.63678 15.3695L1.66706 15.322C2.0699 14.7009 2.65332 14.1706 3.37608 13.7966L3.3794 13.7949L27.3999 1.2577ZM28.9768 3.6465L28.9743 3.64782L5.51586 15.8917L18.5328 23.7258C18.7735 23.8414 19.0389 23.8991 19.3049 23.8989C19.5844 23.8988 19.8632 23.8347 20.1134 23.7067L20.1155 23.7056L44.349 11.1569L30.5395 3.64119C30.0544 3.39607 29.4604 3.39784 28.9768 3.6465ZM37.5 17.9089L30.7291 21.415V35.3367L37.5 31.8104V17.9089ZM40.625 16.2907V30.1828L45.0493 27.8786C45.5483 27.6224 45.8554 27.1503 45.8554 26.6396V13.5822L40.625 16.2907ZM21.6882 26.0966L27.6041 23.0332V36.9642L20.8683 40.4722V26.4309C21.1484 26.3443 21.4213 26.2336 21.6834 26.0991L21.6882 26.0966ZM17.7433 40.4V26.4321C17.4619 26.3453 17.1876 26.2343 16.9244 26.0991L16.8761 26.0743L4.16357 18.4234V31.3415C4.16357 31.8494 4.46731 32.3151 4.95381 32.5663L5.00612 32.5933L17.7433 40.4Z" fill="white"/>
</svg>
